<svg width="25" height="24" viewBox="0 0 25 24" fill="none" xmlns="http://www.w3.org/2000/svg">
<path fill-rule="evenodd" clip-rule="evenodd" d="M10.444 3.25H14.556C16.394 3.25 17.85 3.25 18.989 3.403C20.161 3.561 21.11 3.893 21.859 4.641C22.607 5.39 22.939 6.339 23.097 7.511C23.187 8.184 23.224 8.967 23.239 9.874C23.2521 9.95001 23.2534 10.0276 23.243 10.104C23.25 10.67 23.25 11.282 23.25 11.944V12.056C23.25 13.894 23.25 15.35 23.097 16.489C22.939 17.661 22.607 18.61 21.859 19.359C21.11 20.107 20.161 20.439 18.989 20.597C17.849 20.75 16.394 20.75 14.556 20.75H10.444C8.606 20.75 7.15 20.75 6.011 20.597C4.839 20.439 3.89 20.107 3.141 19.359C2.393 18.61 2.061 17.661 1.903 16.489C1.75 15.349 1.75 13.894 1.75 12.056V11.944C1.75 11.282 1.75 10.67 1.757 10.104C1.74628 10.0276 1.74729 9.95007 1.76 9.874C1.776 8.967 1.813 8.184 1.903 7.511C2.061 6.339 2.393 5.39 3.141 4.641C3.89 3.893 4.839 3.561 6.011 3.403C7.151 3.25 8.606 3.25 10.444 3.25ZM3.252 10.75C3.25 11.138 3.25 11.554 3.25 12C3.25 13.907 3.252 15.262 3.39 16.29C3.525 17.295 3.779 17.875 4.202 18.298C4.625 18.721 5.205 18.975 6.211 19.11C7.239 19.248 8.593 19.25 10.5 19.25H14.5C16.407 19.25 17.762 19.248 18.79 19.11C19.795 18.975 20.375 18.721 20.798 18.298C21.221 17.875 21.475 17.295 21.61 16.289C21.748 15.261 21.75 13.907 21.75 12C21.75 11.554 21.75 11.138 21.748 10.75H3.252ZM21.724 9.25H3.276C3.296 8.663 3.33 8.156 3.39 7.71C3.525 6.705 3.779 6.125 4.202 5.702C4.625 5.279 5.205 5.025 6.211 4.89C7.239 4.752 8.593 4.75 10.5 4.75H14.5C16.407 4.75 17.762 4.752 18.79 4.89C19.795 5.025 20.375 5.279 20.798 5.702C21.221 6.125 21.475 6.705 21.61 7.711C21.67 8.156 21.704 8.663 21.724 9.25ZM5.75 16C5.75 15.8011 5.82902 15.6103 5.96967 15.4697C6.11032 15.329 6.30109 15.25 6.5 15.25H10.5C10.6989 15.25 10.8897 15.329 11.0303 15.4697C11.171 15.6103 11.25 15.8011 11.25 16C11.25 16.1989 11.171 16.3897 11.0303 16.5303C10.8897 16.671 10.6989 16.75 10.5 16.75H6.5C6.30109 16.75 6.11032 16.671 5.96967 16.5303C5.82902 16.3897 5.75 16.1989 5.75 16ZM12.25 16C12.25 15.8011 12.329 15.6103 12.4697 15.4697C12.6103 15.329 12.8011 15.25 13 15.25H14.5C14.6989 15.25 14.8897 15.329 15.0303 15.4697C15.171 15.6103 15.25 15.8011 15.25 16C15.25 16.1989 15.171 16.3897 15.0303 16.5303C14.8897 16.671 14.6989 16.75 14.5 16.75H13C12.8011 16.75 12.6103 16.671 12.4697 16.5303C12.329 16.3897 12.25 16.1989 12.25 16Z" fill="white"/>
</svg>
