<svg width="16" height="32" viewBox="0 0 16 32" fill="none" xmlns="http://www.w3.org/2000/svg">
<g clip-path="url(#clip0_409_164)">
<path d="M15.7996 8.42308C16.0138 8.67949 16.0554 8.96154 15.9245 9.26923L6.28683 31.5192C6.13215 31.8397 5.88229 32 5.53723 32C5.48964 32 5.40635 31.9872 5.28737 31.9615C5.08509 31.8974 4.93339 31.7756 4.83225 31.5962C4.73112 31.4167 4.70434 31.2244 4.75194 31.0192L8.26791 15.4808L1.02179 17.4231C0.9742 17.4359 0.90281 17.4423 0.807623 17.4423C0.593452 17.4423 0.409027 17.3718 0.254348 17.2308C0.0401768 17.0385 -0.0371627 16.7885 0.0223292 16.4808L3.60969 0.615385C3.65729 0.435897 3.75247 0.288462 3.89525 0.173077C4.03804 0.0576923 4.20461 0 4.39499 0H10.249C10.4751 0 10.6654 0.0801282 10.8201 0.240385C10.9748 0.400641 11.0521 0.589744 11.0521 0.807692C11.0521 0.910256 11.0224 1.02564 10.9629 1.15385L7.91096 10.0577L14.9786 8.17308C15.0738 8.14744 15.1452 8.13462 15.1928 8.13462C15.4188 8.13462 15.6211 8.23077 15.7996 8.42308Z" fill="#A59DD7"/>
</g>
<defs>
<clipPath id="clip0_409_164">
<rect width="16" height="32" fill="white"/>
</clipPath>
</defs>
</svg>
