<svg width="32" height="32" viewBox="0 0 32 32" fill="none" xmlns="http://www.w3.org/2000/svg">
<g clip-path="url(#clip0_409_189)">
<path d="M20 6.00001C20 8.62601 19.392 11.016 18.4 12.8C17.98 12.4836 17.5014 12.2536 16.992 12.1231C16.4826 11.9927 15.9524 11.9644 15.432 12.04C14.872 10.076 13.612 7.96001 11.756 6.10201C11.4409 5.78638 11.1133 5.48348 10.774 5.19401C12.4031 4.40545 14.19 3.99718 16 4.00001C17.382 4.00001 18.71 4.23401 19.946 4.66401C19.982 5.10201 20 5.54801 20 6.00001ZM20 16C20 16.146 19.992 16.292 19.976 16.434C22.012 16.396 24.376 15.728 26.638 14.422C27.0275 14.1967 27.4078 13.9559 27.778 13.7C27.169 10.5824 25.3496 7.83309 22.718 6.05401C22.6369 6.48406 22.5401 6.91101 22.428 7.33401C21.748 9.87201 20.54 12.026 19.116 13.492C19.67 14.178 20 15.052 20 16ZM19.726 17.456C19.533 17.9485 19.2446 18.398 18.8773 18.7786C18.5101 19.1592 18.0712 19.4635 17.586 19.674C18.636 21.414 20.396 23.124 22.656 24.428C23.056 24.66 23.46 24.872 23.866 25.062C25.0582 24.0296 26.0347 22.7717 26.7393 21.3607C27.444 19.9497 27.8629 18.4134 27.972 16.84C27.556 16.986 27.13 17.12 26.69 17.238C24.162 17.916 21.704 17.95 19.726 17.458V17.456ZM16 20C15.1 20 14.268 19.702 13.6 19.2C12.612 20.98 12.008 23.364 12.008 25.982C12.008 26.442 12.028 26.896 12.062 27.338C13.3284 27.7774 14.6595 28.0012 16 28C17.88 28 19.66 27.568 21.246 26.796C20.9024 26.5042 20.5708 26.1986 20.252 25.88C18.402 24.028 17.142 21.918 16.58 19.96C16.392 19.986 16.198 20 16 20ZM12 16C12 15.84 12.01 15.68 12.028 15.522C9.98798 15.556 7.61798 16.224 5.34798 17.536C4.95985 17.76 4.58088 17.9996 4.21198 18.254C4.5083 19.8027 5.10679 21.2779 5.97328 22.5953C6.83976 23.9127 7.95727 25.0465 9.26198 25.932C9.34319 25.4929 9.44194 25.0572 9.55798 24.626C10.238 22.092 11.438 19.942 12.858 18.476C12.3004 17.7713 11.998 16.8986 12 16ZM5.30598 14.736C7.83998 14.056 10.302 14.026 12.282 14.522C12.674 13.534 13.448 12.742 14.422 12.322C13.374 10.574 11.61 8.85601 9.33998 7.54601C8.95249 7.32221 8.55617 7.11404 8.15198 6.92201C6.95842 7.95217 5.98004 9.2079 5.27302 10.6171C4.566 12.0264 4.14425 13.5614 4.03198 15.134C4.44398 14.986 4.86798 14.854 5.30598 14.736ZM16 18C16.5304 18 17.0391 17.7893 17.4142 17.4142C17.7893 17.0392 18 16.5304 18 16C18 15.4696 17.7893 14.9609 17.4142 14.5858C17.0391 14.2107 16.5304 14 16 14C15.4696 14 14.9608 14.2107 14.5858 14.5858C14.2107 14.9609 14 15.4696 14 16C14 16.5304 14.2107 17.0392 14.5858 17.4142C14.9608 17.7893 15.4696 18 16 18Z" fill="#7EDFC2"/>
<path d="M16 30C12.287 30 8.72601 28.525 6.1005 25.8995C3.475 23.274 2 19.713 2 16C2 12.287 3.475 8.72601 6.1005 6.1005C8.72601 3.475 12.287 2 16 2C19.713 2 23.274 3.475 25.8995 6.1005C28.525 8.72601 30 12.287 30 16C30 19.713 28.525 23.274 25.8995 25.8995C23.274 28.525 19.713 30 16 30ZM16 32C20.2435 32 24.3131 30.3143 27.3137 27.3137C30.3143 24.3131 32 20.2435 32 16C32 11.7565 30.3143 7.68687 27.3137 4.68629C24.3131 1.68571 20.2435 0 16 0C11.7565 0 7.68687 1.68571 4.68629 4.68629C1.68571 7.68687 0 11.7565 0 16C0 20.2435 1.68571 24.3131 4.68629 27.3137C7.68687 30.3143 11.7565 32 16 32Z" fill="#7EDFC2"/>
</g>
<defs>
<clipPath id="clip0_409_189">
<rect width="32" height="32" fill="white"/>
</clipPath>
</defs>
</svg>
