<svg width="22" height="32" viewBox="0 0 32 32" fill="none" xmlns="http://www.w3.org/2000/svg">
<path d="M26 17.3334C24.24 17.3334 22.7333 18.3201 21.9333 19.7467L17.64 16.2401L14.6133 17.3334L13.16 15.0934L14.9467 15.5867L18.4933 12.6667L17.24 11.1467L14.5333 13.3734L10.6133 12.0001H10.6C10.0533 11.8001 9.43999 11.8534 8.92 12.1867C8.05333 12.7467 7.77333 13.8534 8.21333 14.7601C7.93333 14.7067 7.64 14.6667 7.33333 14.6667C3.99999 14.6667 1.33333 17.3334 1.33333 20.6667C1.33333 24.0001 3.99999 26.6667 7.33333 26.6667C10.6667 26.6667 13.3333 24.0001 13.3333 20.6667C13.3333 20.4934 13.2933 20.3334 13.28 20.1601L17.3333 18.6667L21.3333 22.0001C21.3333 24.5734 23.4267 26.6667 26 26.6667C28.5733 26.6667 30.6667 24.5734 30.6667 22.0001C30.6667 19.4267 28.5733 17.3334 26 17.3334ZM7.33333 24.6667C5.13333 24.6667 3.33333 22.8667 3.33333 20.6667C3.33333 18.4667 5.13333 16.6667 7.33333 16.6667C9.53333 16.6667 11.3333 18.4667 11.3333 20.6667C11.3333 22.8667 9.53333 24.6667 7.33333 24.6667ZM26 24.6667C24.5333 24.6667 23.3333 23.4667 23.3333 22.0001C23.3333 20.5334 24.5333 19.3334 26 19.3334C27.4667 19.3334 28.6667 20.5334 28.6667 22.0001C28.6667 23.4667 27.4667 24.6667 26 24.6667ZM8.58666 10.0934C7.8 9.33339 7.8 8.08006 8.58666 7.33339C9.37333 6.52006 10.6267 6.52006 11.4133 7.33339C12.2 8.08006 12.2 9.33339 11.4133 10.0934C10.6267 10.8667 9.37333 10.8667 8.58666 10.0934Z" fill="#7C7CE1"/>
</svg>
