<svg width="32" height="32" viewBox="0 0 32 32" fill="none" xmlns="http://www.w3.org/2000/svg">
<g clip-path="url(#clip0_409_207)">
<path fill-rule="evenodd" clip-rule="evenodd" d="M21.0187 5.33325C21.7614 5.33328 22.4895 5.5401 23.1213 5.93054C23.7531 6.32099 24.2638 6.87964 24.596 7.54392L26.444 11.2386C26.7693 11.1053 27.0893 10.9613 27.404 10.8066C27.7205 10.6485 28.0868 10.6226 28.4224 10.7347C28.7579 10.8467 29.0353 11.0874 29.1933 11.4039C29.3514 11.7204 29.3773 12.0867 29.2653 12.4223C29.1532 12.7579 28.9125 13.0352 28.596 13.1933C28.2755 13.3359 27.9533 13.4746 27.6293 13.6093L28.9107 16.1733C29.1888 16.7292 29.3335 17.3423 29.3333 17.9639V21.3333C29.3342 21.8962 29.2158 22.4529 28.986 22.9667C28.7562 23.4806 28.4201 23.9399 28 24.3146V25.9999C28 26.5304 27.7893 27.0391 27.4142 27.4141C27.0391 27.7892 26.5304 27.9999 26 27.9999C25.4696 27.9999 24.9609 27.7892 24.5858 27.4141C24.2107 27.0391 24 26.5304 24 25.9999V25.3333H8.00001V25.9999C8.00001 26.5304 7.78929 27.0391 7.41422 27.4141C7.03915 27.7892 6.53044 27.9999 6.00001 27.9999C5.46957 27.9999 4.96086 27.7892 4.58579 27.4141C4.21072 27.0391 4.00001 26.5304 4.00001 25.9999V24.3146C3.18134 23.5813 2.66667 22.5173 2.66667 21.3333V17.9626C2.66692 17.3419 2.81163 16.7297 3.08934 16.1746L4.36001 13.6306C4.03867 13.4946 3.72001 13.3506 3.40667 13.1946C3.09178 13.0345 2.85242 12.757 2.74018 12.4221C2.62795 12.0871 2.65183 11.7214 2.80667 11.4039C2.88488 11.2472 2.99322 11.1073 3.12549 10.9925C3.25777 10.8776 3.41138 10.7899 3.57755 10.7345C3.74373 10.679 3.91921 10.6568 4.09396 10.6692C4.26871 10.6815 4.43931 10.7282 4.59601 10.8066C4.91067 10.9626 5.232 11.1053 5.55601 11.2386L7.40401 7.54525C7.73607 6.88073 8.24663 6.3218 8.87847 5.93111C9.51031 5.54042 10.2385 5.3334 10.9813 5.33325H21.0187ZM10 17.3333C9.46957 17.3333 8.96086 17.544 8.58579 17.919C8.21072 18.2941 8.00001 18.8028 8.00001 19.3333C8.00001 19.8637 8.21072 20.3724 8.58579 20.7475C8.96086 21.1225 9.46957 21.3333 10 21.3333C10.5304 21.3333 11.0391 21.1225 11.4142 20.7475C11.7893 20.3724 12 19.8637 12 19.3333C12 18.8028 11.7893 18.2941 11.4142 17.919C11.0391 17.544 10.5304 17.3333 10 17.3333ZM22 17.3333C21.4696 17.3333 20.9609 17.544 20.5858 17.919C20.2107 18.2941 20 18.8028 20 19.3333C20 19.8637 20.2107 20.3724 20.5858 20.7475C20.9609 21.1225 21.4696 21.3333 22 21.3333C22.5304 21.3333 23.0391 21.1225 23.4142 20.7475C23.7893 20.3724 24 19.8637 24 19.3333C24 18.8028 23.7893 18.2941 23.4142 17.919C23.0391 17.544 22.5304 17.3333 22 17.3333ZM21.0187 7.99992H10.9813C10.7619 7.99989 10.5458 8.05402 10.3523 8.15753C10.1588 8.26103 9.9938 8.4107 9.872 8.59325L9.78934 8.73725L8.09601 12.1213C10.16 12.7399 12.9413 13.3333 16 13.3333C18.856 13.3333 21.468 12.8159 23.48 12.2439L23.9027 12.1213L22.2107 8.73725C22.1125 8.54101 21.9675 8.37201 21.7884 8.24525C21.6093 8.11849 21.4017 8.03788 21.184 8.01059L21.02 7.99992H21.0187Z" fill="#DD717E"/>
</g>
<defs>
<clipPath id="clip0_409_207">
<rect width="32" height="32" fill="white"/>
</clipPath>
</defs>
</svg>
