<svg width="22" height="32" viewBox="0 0 40 32" fill="none" xmlns="http://www.w3.org/2000/svg">
<g opacity="0.32">
<path d="M3.3875 12.6812C7.7 8.54375 13.55 6 20 6C26.45 6 32.3 8.54375 36.6125 12.6812C37.4125 13.4437 38.675 13.4187 39.4375 12.625C40.2 11.8313 40.175 10.5625 39.3812 9.8C34.3562 4.96875 27.525 2 20 2C12.475 2 5.64375 4.96875 0.612498 9.79375C-0.181252 10.5625 -0.206252 11.825 0.556248 12.625C1.31875 13.425 2.5875 13.45 3.38125 12.6812H3.3875ZM20 16C23.55 16 26.7875 17.3188 29.2625 19.5C30.0937 20.2313 31.3562 20.15 32.0875 19.325C32.8187 18.5 32.7375 17.2312 31.9125 16.5C28.7375 13.7 24.5625 12 20 12C15.4375 12 11.2625 13.7 8.09375 16.5C7.2625 17.2312 7.1875 18.4938 7.91875 19.325C8.65 20.1562 9.9125 20.2313 10.7437 19.5C13.2125 17.3188 16.45 16 20.0062 16H20ZM24 26C24 24.9391 23.5786 23.9217 22.8284 23.1716C22.0783 22.4214 21.0609 22 20 22C18.9391 22 17.9217 22.4214 17.1716 23.1716C16.4214 23.9217 16 24.9391 16 26C16 27.0609 16.4214 28.0783 17.1716 28.8284C17.9217 29.5786 18.9391 30 20 30C21.0609 30 22.0783 29.5786 22.8284 28.8284C23.5786 28.0783 24 27.0609 24 26Z" fill="#7ED0DC"/>
</g>
</svg>
