<svg width="111" height="37" viewBox="0 0 111 37" fill="none" xmlns="http://www.w3.org/2000/svg">
<path d="M81.231 14.013C82.017 14.1731 82.2914 15.0619 82.4972 15.7422C82.8616 17.2244 82.8616 18.7729 82.4972 20.2551C82.2914 20.9325 82.017 21.8213 81.231 21.97C81.4351 21.9664 81.6351 21.9124 81.8132 21.8126C81.9912 21.7129 82.1418 21.5705 82.2514 21.3983C83.3746 19.8149 83.3946 17.417 82.823 15.6221C82.5515 14.9505 82.0885 13.993 81.231 14.013Z" fill="#0B0A12"/>
<path d="M59.5723 17.4801C58.9864 15.7995 57.3201 14.4276 55.4909 14.5791C59.2064 14.8849 60.6183 19.6522 58.4005 22.356C58.0506 22.8048 57.6114 23.1761 57.1105 23.4462C56.6097 23.7163 56.0581 23.8794 55.4909 23.9251C56.0868 23.9565 56.6819 23.8506 57.2305 23.6158C57.779 23.3809 58.2663 23.0232 58.6548 22.5703C59.2475 21.8806 59.6451 21.045 59.8065 20.1501C59.9678 19.2551 59.8869 18.3333 59.5723 17.4801Z" fill="#0B0A12"/>
<path d="M56.9855 22.453C59.6922 21.4584 59.7093 17.1084 57.0227 16.0737C59.1577 17.5942 59.1234 20.9925 56.9855 22.453Z" fill="#0B0A12"/>
<path d="M56.2252 19.2519C56.2092 19.1106 56.1527 18.9769 56.0625 18.867C55.9723 18.757 55.8521 18.6755 55.7166 18.6323C55.5811 18.5891 55.436 18.5859 55.2988 18.6233C55.1616 18.6607 55.0381 18.7369 54.9432 18.8429C54.8483 18.9488 54.7861 19.08 54.764 19.2205C54.742 19.361 54.7611 19.5049 54.8189 19.6348C54.8768 19.7647 54.971 19.8752 55.0902 19.9528C55.2094 20.0304 55.3485 20.0718 55.4907 20.0722C55.6967 20.0604 55.8897 19.9675 56.0273 19.8137C56.165 19.66 56.2362 19.458 56.2252 19.2519Z" fill="#0B0A12"/>
<path d="M81.5912 17.9972C81.5912 17.6571 81.4683 17.3113 81.2311 17.3113C80.9938 17.3113 80.8681 17.6571 80.8681 17.9972C80.8681 18.3373 80.9938 18.686 81.2311 18.686C81.4683 18.686 81.5912 18.3402 81.5912 17.9972Z" fill="#0B0A12"/>
<path d="M84.6635 10.2346C84.5975 9.69277 84.3821 9.17997 84.0414 8.75348C83.7007 8.327 83.2482 8.00364 82.7343 7.81952C81.8992 7.49487 81.1111 7.06043 80.3907 6.52765C79.2303 5.69594 78.1842 4.71561 77.0324 3.87819C73.8228 1.54598 69.8643 0.391309 65.9087 0.0883501C61.9531 -0.214609 57.9775 0.29985 54.0847 1.04867C57.1806 0.744757 60.2922 0.629266 63.4021 0.70284C66.4832 0.739995 69.5928 1.16585 72.4595 2.30624C75.712 3.60096 78.5386 5.7674 81.2538 7.97957C77.7876 8.157 74.3391 8.58878 70.9361 9.27143C74.8992 8.82072 78.9019 8.84182 82.8601 9.33431C84.2634 9.51723 84.7379 11.2407 84.7379 12.6554C84.7758 11.8478 84.751 11.0384 84.6635 10.2346Z" fill="#0B0A12"/>
<path d="M66.3232 2.73214C65.0487 3.22968 63.9216 4.04304 63.0478 5.09579C62.3158 5.96486 61.6572 6.89311 61.0786 7.871C61.0441 7.92631 61.0254 7.99 61.0245 8.05518C61.0236 8.12035 61.0406 8.18453 61.0736 8.24076C61.1065 8.29698 61.1542 8.34312 61.2116 8.37417C61.2689 8.40522 61.3336 8.42 61.3987 8.4169L62.5762 8.35974C62.622 8.29686 62.6705 8.23684 62.7191 8.17396C63.0897 7.66449 63.5017 7.18651 63.951 6.74491C65.1384 6.5349 66.3524 6.52331 67.5436 6.71062C68.0895 6.80207 68.2524 7.47945 68.2781 8.06536H68.421C69.1299 8.03487 69.8377 7.99676 70.5446 7.95103C70.5869 6.06834 70.2797 4.19413 69.6386 2.42346C68.5245 2.26555 67.389 2.37128 66.3232 2.73214Z" fill="#0B0A12"/>
<path d="M76.415 7.18489C76.5998 7.14527 76.7688 7.05184 76.9005 6.91637C77.0323 6.78091 77.1211 6.60947 77.1556 6.42366C77.1902 6.23784 77.1689 6.04597 77.0946 5.8722C77.0203 5.69843 76.8962 5.55054 76.738 5.44717C76.4522 5.26425 76.1664 5.09562 75.8806 4.92985C74.4172 4.09243 72.9281 3.26072 71.3076 2.77198C71.1304 2.71768 70.9532 2.66909 70.7731 2.62622C71.3969 4.29957 71.7528 6.06085 71.8278 7.84511C73.3696 7.72536 74.902 7.50482 76.415 7.18489Z" fill="#0B0A12"/>
<path d="M83.8546 15.9821C83.8546 11.9437 81.9339 11.755 81.8539 11.7522C79.3388 11.3749 78.0212 15.2419 77.461 17.5827C77.3264 18.1553 77.0159 18.6713 76.573 19.0583C76.1301 19.4453 75.5771 19.6839 74.9916 19.7406L61.3899 21.0238C61.469 19.2288 61.3656 17.4304 61.0812 15.6563C60.8183 13.9415 59.8665 11.9094 57.9859 11.3435C56.6226 10.9319 54.982 11.4378 53.8074 12.6296C53.2263 13.2376 52.7579 13.9441 52.424 14.716L48.7285 15.1676L52.1954 15.2676C52.1116 15.4829 52.0315 15.7059 51.9553 15.9364L47.651 16.4509L51.761 16.5681V16.6052C51.7114 16.7767 51.6657 16.951 51.6238 17.1282L46.5821 17.7513L51.3265 17.8885L51.3494 18.3315L45.5046 19.0489L51.0607 19.2089L51.075 19.5291L44.4271 20.3436L50.8064 20.5294C50.7578 20.6894 50.7092 20.8495 50.6549 21.0038C49.3945 21.0781 32.7689 21.6726 28.5475 21.8212C28.191 21.8094 27.838 21.7478 27.4985 21.6383C27.3291 21.583 27.1726 21.494 27.0385 21.3766C26.9045 21.2592 26.7955 21.1159 26.7183 20.9552C26.4953 20.4151 26.784 19.7949 27.0041 19.2775C27.1098 19.0273 27.2431 18.7895 27.4014 18.5687C27.4944 18.4226 27.6113 18.2931 27.7472 18.1857C27.8185 18.2497 27.9069 18.2914 28.0016 18.3058C32.9232 18.986 37.1475 18.7031 43.744 18.3058C43.8241 18.3018 43.902 18.2783 43.9709 18.2373C44.0398 18.1962 44.0976 18.139 44.1394 18.0705C44.1811 18.002 44.2054 17.9244 44.2102 17.8443C44.215 17.7643 44.2002 17.6843 44.167 17.6113C43.8919 17.0525 43.4931 16.5638 43.0009 16.1822C41.286 14.836 38.9995 14.4416 36.8931 14.373C34.6781 14.2959 32.0143 14.3302 29.9794 15.2762C29.033 15.6972 28.2508 16.4171 27.7529 17.3255C27.3319 17.1754 26.9662 16.9014 26.704 16.5395C26.3504 15.8328 26.2341 15.031 26.3724 14.253C26.4519 13.8555 26.5856 13.4708 26.7697 13.1098C26.9008 13.2504 27.0544 13.3682 27.2242 13.4584C27.4889 13.5781 27.7748 13.6441 28.0653 13.6524C28.3557 13.6607 28.645 13.6113 28.9162 13.507C29.09 13.4452 29.2464 13.3422 29.3718 13.2068C29.4972 13.0714 29.588 12.9077 29.6364 12.7296C29.676 12.3852 29.697 12.0389 29.6993 11.6921C29.78 11.0924 30.0321 10.5287 30.4252 10.0687C30.4738 10.0059 30.531 9.9487 30.5853 9.88867C31.4958 9.47846 32.4485 9.16891 33.4262 8.96551C33.6578 8.93979 38.2336 8.45105 44.0384 8.45105H57.2685C58.1126 8.40601 58.9174 8.08006 59.555 7.52503C60.0724 6.96988 60.5545 6.38281 60.9983 5.76729C62.3897 4.01717 64.158 2.60351 66.1715 1.63162C61.5071 1.39916 56.8389 1.39916 52.1668 1.63162C51.1667 1.68087 50.173 1.81859 49.1972 2.04319L56.9141 2.26612L48.517 2.5062C47.7459 2.52603 46.9856 2.69186 46.2763 2.99494L46.1362 3.05496L57.2342 3.37506L45.496 3.71232C45.0119 3.7259 44.5383 3.85631 44.1155 4.09244L57.5486 4.48115L43.4382 4.87271C42.9209 4.90415 42.3921 4.99846 42.2949 5.14137L57.863 5.59009L41.6633 6.05596C41.3175 6.07883 40.8573 6.1217 40.8573 6.20173L58.1803 6.69904L39.5483 7.23636V7.26208L58.4975 7.80798L44.9101 8.19954C44.9101 8.19954 38.6423 8.14809 34.7638 8.54823C34.7452 8.5425 34.7253 8.5425 34.7067 8.54823C34.478 8.57395 34.2522 8.60824 34.0293 8.64254H34.0007C33.6206 8.69113 33.2776 8.7483 32.9775 8.81117C31.9489 8.98508 30.9412 9.26573 29.9708 9.64859C28.7933 10.1345 27.187 11.0605 26.2553 12.7096C25.3978 14.2187 25.3378 16.0479 26.1181 17.3912C25.8992 17.9178 25.7838 18.4815 25.778 19.0518C25.7261 19.4612 25.7127 19.8745 25.738 20.2864C25.735 20.7604 25.8877 21.2223 26.1724 21.6012C26.4665 21.9056 26.8644 22.0882 27.287 22.1128C27.6097 22.1485 27.935 22.1543 28.2588 22.1299C28.6217 22.7531 29.1389 23.2724 29.7606 23.6378C30.3823 24.0032 31.0876 24.2025 31.8086 24.2163H34.498C35.162 24.2079 35.8143 24.0399 36.3997 23.7265C36.9852 23.4132 37.4867 22.9636 37.862 22.4157C40.3514 22.4557 42.6751 22.47 44.6986 22.47C45.8418 22.47 46.9165 22.47 47.8425 22.47C48.274 23.2565 48.9058 23.915 49.6737 24.3788C50.4416 24.8425 51.3184 25.0951 52.2154 25.1109H55.4908C57.3686 25.1109 59.0148 23.9991 59.938 22.3357L61.1041 22.2328L62.1759 22.1556C62.2898 22.3308 62.4427 22.4773 62.6228 22.5834C62.8028 22.6895 63.0049 22.7525 63.2134 22.7673H66.1286C66.6059 22.7673 67.049 22.4243 67.4148 21.7812L76.152 21.1525C76.6036 22.5386 77.2952 23.3332 78.0869 23.3332H81.4852C82.8228 23.3332 83.8717 21.0038 83.8717 18.0286C83.8717 17.7427 83.8717 17.4569 83.8403 17.1711C83.8632 16.7138 83.866 16.3308 83.8546 15.9821ZM36.8645 14.796C37.3047 14.796 37.722 14.8389 38.1307 14.8818L32.0544 15.059C33.6425 14.7888 35.2564 14.7006 36.8645 14.796ZM30.1451 15.6535C30.3366 15.5649 30.5396 15.4848 30.7453 15.4105L40.0628 15.6792L29.5564 15.9821C29.7459 15.861 29.9436 15.7531 30.148 15.6592L30.1451 15.6535ZM29.2277 16.2251L40.3086 16.5452L28.5389 16.8853C28.7431 16.6366 28.9752 16.4122 29.2305 16.2165L29.2277 16.2251ZM28.416 17.0454L40.5515 17.3969L28.0044 17.7485C28.1139 17.4957 28.253 17.2568 28.4188 17.0368L28.416 17.0454ZM38.4822 18.1886C34.6209 18.3687 31.457 18.3715 27.9816 17.8856L38.4822 18.1886ZM55.4879 24.8851C55.3822 24.8851 55.2764 24.8851 55.1707 24.8851H55.0649C54.9963 24.8851 54.9249 24.8851 54.8563 24.8623L54.7305 24.8423C54.6705 24.8423 54.6076 24.8223 54.5476 24.808L54.4133 24.7765L54.2447 24.7337L54.1103 24.6908L53.9474 24.6365L53.8131 24.585L53.6559 24.5222L53.5216 24.4593L53.3729 24.385L53.2415 24.3135L53.0986 24.2306L52.9728 24.1506C52.9271 24.1192 52.8785 24.0906 52.8328 24.0563L52.7099 23.9677C52.667 23.9334 52.6213 23.9019 52.5784 23.8648C52.5355 23.8276 52.4984 23.8019 52.4612 23.7676L52.3326 23.6562L52.2211 23.5504C52.1782 23.5104 52.1382 23.4704 52.0982 23.4275L51.9925 23.316C51.9525 23.2732 51.9124 23.2303 51.8753 23.1846L51.7753 23.0645L51.6666 22.9245L51.5723 22.7959L51.4694 22.6472L51.3837 22.5129C51.3665 22.4872 51.3523 22.4615 51.338 22.4357L52.2897 22.4186H52.3926V22.3157C52.3926 22.3157 52.3926 22.2871 52.3926 22.2471C52.3926 22.23 52.3926 22.2071 52.3926 22.1842V22.1099C52.4355 21.0667 52.7156 16.4109 54.3761 13.8214L54.5019 13.7928L54.6305 13.7643L54.7963 13.7385L54.9134 13.7185L55.0992 13.7014H55.1964C55.2898 13.7014 55.385 13.7014 55.4822 13.7014C58.2489 13.7014 60.4982 16.2194 60.4982 19.3147C60.4982 22.41 58.2574 24.868 55.4908 24.868L55.4879 24.8851ZM81.3738 12.5381C81.5903 12.426 81.8378 12.3887 82.0778 12.4321C82.3177 12.4756 82.5365 12.5973 82.6999 12.7782C83.0915 13.2126 83.523 14.0472 83.6259 15.6363C83.2401 13.8843 82.4341 12.7039 81.4824 12.7039H81.0965C81.1849 12.6357 81.2786 12.5745 81.3766 12.521L81.3738 12.5381ZM81.4824 23.1131C80.282 23.1131 79.3073 20.8266 79.3073 18.02C79.3073 17.8999 79.3073 17.7799 79.3073 17.6627C79.3073 17.637 79.3073 17.6113 79.3073 17.5855C79.3073 17.334 79.3331 17.0854 79.3588 16.8424C79.4236 16.2245 79.55 15.6146 79.7361 15.0218C79.8075 14.8246 79.879 14.6245 79.9561 14.4273L80.0076 14.2987C80.3648 13.5099 80.8164 13.0297 81.2909 12.924C81.3575 12.9093 81.4255 12.9017 81.4938 12.9011C82.6913 12.9011 83.6688 15.1876 83.6688 17.9943C83.6688 20.8009 82.6828 23.0902 81.4852 23.0902L81.4824 23.1131Z" fill="#0B0A12"/>
<path d="M43.4379 12.7781C43.3713 12.8315 43.3205 12.9021 43.291 12.9822C43.2615 13.0624 43.2545 13.149 43.2706 13.2329C43.2868 13.3167 43.3256 13.3946 43.3828 13.458C43.44 13.5214 43.5134 13.568 43.5951 13.5927C44.787 13.93 46.1274 13.9185 47.345 13.8528C48.1795 13.8071 49.037 13.747 49.7972 13.3984C50.8376 12.9182 51.4578 11.775 52.3695 11.069C52.5817 10.9309 52.7541 10.7398 52.8697 10.5145C52.8963 10.4446 52.906 10.3693 52.8981 10.2949C52.8903 10.2204 52.865 10.1489 52.8244 10.086C52.7838 10.0232 52.7289 9.97071 52.6643 9.93295C52.5997 9.89518 52.5271 9.87313 52.4524 9.8686C49.1884 9.66842 45.969 10.7075 43.4379 12.7781Z" fill="#0B0A12"/>
<path d="M76.7096 17.4313C76.8734 16.1146 77.306 14.8456 77.9805 13.703C78.6551 12.5604 79.5572 11.5686 80.6309 10.7891C79.2018 11.3007 76.3294 13.7958 76.0894 16.8225C71.8319 17.6097 67.523 18.0873 63.1965 18.2516C67.7152 18.729 72.2818 18.4518 76.7096 17.4313Z" fill="#0B0A12"/>
<path d="M106.306 36.9147C104.97 36.9147 103.578 36.6022 102.783 36.1477L103.664 34.0312C104.402 34.4715 105.453 34.7272 106.377 34.7272C107.158 34.7272 107.371 34.5852 107.371 34.3579C107.371 33.5625 102.897 34.6278 102.897 31.517C102.897 30.054 104.26 28.8608 106.874 28.8608C108.01 28.8608 109.218 29.0739 110.041 29.5L109.161 31.6165C108.365 31.1761 107.57 31.0483 106.916 31.0483C106.093 31.0483 105.865 31.233 105.865 31.4176C105.865 32.2273 110.326 31.1761 110.326 34.2869C110.326 35.6931 109.005 36.9147 106.306 36.9147Z" fill="#0B0A12"/>
<path d="M102.252 32.8807C102.252 33.1079 102.224 33.4062 102.21 33.6335H96.8122C97.0394 34.2301 97.5792 34.5426 98.3746 34.5426C99.0849 34.5426 99.4826 34.3579 99.9939 33.9744L101.67 35.6647C100.917 36.4886 99.8235 36.9147 98.2752 36.9147C95.4201 36.9147 93.5736 35.196 93.5736 32.8807C93.5736 30.5227 95.4628 28.8608 97.9769 28.8608C100.278 28.8608 102.252 30.2529 102.252 32.8807ZM98.0053 31.0483C97.3377 31.0483 96.8832 31.4318 96.7553 32.0852H99.2553C99.1275 31.4318 98.6587 31.0483 98.0053 31.0483Z" fill="#0B0A12"/>
<path d="M89.4919 36.9147C86.8073 36.9147 84.9039 35.2528 84.9039 32.8807C84.9039 30.5227 86.8073 28.8608 89.4919 28.8608C91.3811 28.8608 92.8015 29.7273 93.3129 31.1619L90.8271 32.3835C90.5004 31.6591 90.0317 31.3608 89.4777 31.3608C88.7533 31.3608 88.1567 31.8722 88.1567 32.8807C88.1567 33.9034 88.7533 34.4147 89.4777 34.4147C90.0317 34.4147 90.5004 34.1164 90.8271 33.392L93.3129 34.6136C92.8015 36.0482 91.3811 36.9147 89.4919 36.9147Z" fill="#0B0A12"/>
<path d="M82.2882 28.3778C81.1093 28.3778 80.3564 27.6676 80.3564 26.7443C80.3564 25.8211 81.1093 25.1108 82.2882 25.1108C83.4672 25.1108 84.22 25.7642 84.22 26.6875C84.22 27.6676 83.4672 28.3778 82.2882 28.3778ZM80.6831 36.7726V29.0028H83.8933V36.7726H80.6831Z" fill="#0B0A12"/>
<path d="M77.1527 29.0027H80.1924L77.0675 36.7724H73.7437L70.6187 29.0027H73.9141L75.4766 33.1645L77.1527 29.0027Z" fill="#0B0A12"/>
<path d="M67.9096 29.8409C68.4778 29.1875 69.3443 28.8608 70.4238 28.8608V31.7017C70.1397 31.6591 69.9409 31.6449 69.7136 31.6449C68.7477 31.6449 68.0659 32.0852 68.0659 33.321V36.7726H64.8557V29.0029H67.9096V29.8409Z" fill="#0B0A12"/>
<path d="M63.8425 32.8807C63.8425 33.1079 63.8141 33.4062 63.7999 33.6335H58.4023C58.6295 34.2301 59.1693 34.5426 59.9648 34.5426C60.675 34.5426 61.0727 34.3579 61.584 33.9744L63.2602 35.6647C62.5073 36.4886 61.4136 36.9147 59.8653 36.9147C57.0103 36.9147 55.1637 35.196 55.1637 32.8807C55.1637 30.5227 57.0529 28.8608 59.567 28.8608C61.8681 28.8608 63.8425 30.2529 63.8425 32.8807ZM59.5954 31.0483C58.9278 31.0483 58.4733 31.4318 58.3455 32.0852H60.8454C60.7176 31.4318 60.2488 31.0483 59.5954 31.0483Z" fill="#0B0A12"/>
<path d="M50.5843 36.9147C49.249 36.9147 47.857 36.6022 47.0616 36.1477L47.9423 34.0312C48.6809 34.4715 49.732 34.7272 50.6553 34.7272C51.4365 34.7272 51.6496 34.5852 51.6496 34.3579C51.6496 33.5625 47.1752 34.6278 47.1752 31.517C47.1752 30.054 48.5388 28.8608 51.1524 28.8608C52.2888 28.8608 53.4961 29.0739 54.32 29.5L53.4393 31.6165C52.6439 31.1761 51.8484 31.0483 51.195 31.0483C50.3712 31.0483 50.1439 31.233 50.1439 31.4176C50.1439 32.2273 54.6041 31.1761 54.6041 34.2869C54.6041 35.6931 53.2831 36.9147 50.5843 36.9147Z" fill="#0B0A12"/>
<path d="M38.7226 36.9147C36.038 36.9147 34.1346 35.2528 34.1346 32.8807C34.1346 30.5227 36.038 28.8608 38.7226 28.8608C40.6118 28.8608 42.0322 29.7273 42.5436 31.1619L40.0578 32.3835C39.7311 31.6591 39.2624 31.3608 38.7084 31.3608C37.984 31.3608 37.3874 31.8722 37.3874 32.8807C37.3874 33.9034 37.984 34.4147 38.7084 34.4147C39.2624 34.4147 39.7311 34.1164 40.0578 33.392L42.5436 34.6136C42.0322 36.0482 40.6118 36.9147 38.7226 36.9147Z" fill="#0B0A12"/>
<path d="M29.0248 36.9147C26.397 36.9147 24.5079 35.2386 24.5079 32.8807C24.5079 30.5227 26.397 28.8608 29.0248 28.8608C31.6668 28.8608 33.5418 30.5227 33.5418 32.8807C33.5418 35.2386 31.6668 36.9147 29.0248 36.9147ZM29.0248 34.4147C29.7351 34.4147 30.289 33.8892 30.289 32.8807C30.289 31.8722 29.7351 31.3608 29.0248 31.3608C28.3146 31.3608 27.7607 31.8722 27.7607 32.8807C27.7607 33.8892 28.3146 34.4147 29.0248 34.4147Z" fill="#0B0A12"/>
<path d="M20.2869 36.7725V26.2329H23.4971V36.7725H20.2869Z" fill="#0B0A12"/>
<path d="M14.765 36.9147C12.1372 36.9147 10.248 35.2386 10.248 32.8807C10.248 30.5227 12.1372 28.8608 14.765 28.8608C17.407 28.8608 19.282 30.5227 19.282 32.8807C19.282 35.2386 17.407 36.9147 14.765 36.9147ZM14.765 34.4147C15.4752 34.4147 16.0292 33.8892 16.0292 32.8807C16.0292 31.8722 15.4752 31.3608 14.765 31.3608C14.0548 31.3608 13.5008 31.8722 13.5008 32.8807C13.5008 33.8892 14.0548 34.4147 14.765 34.4147Z" fill="#0B0A12"/>
<path d="M5.53968 36.9999C2.34371 36.9999 0 34.855 0 31.8011C0 28.7471 2.34371 26.6023 5.53968 26.6023C7.48567 26.6023 9.01974 27.3125 9.99984 28.5909L7.88339 30.4801C7.30102 29.7414 6.60501 29.3153 5.71013 29.3153C4.31811 29.3153 3.38063 30.2812 3.38063 31.8011C3.38063 33.3209 4.31811 34.2868 5.71013 34.2868C6.60501 34.2868 7.30102 33.8607 7.88339 33.1221L9.99984 35.0112C9.01974 36.2896 7.48567 36.9999 5.53968 36.9999Z" fill="#0B0A12"/>
</svg>
