<svg width="223" height="40" viewBox="0 0 223 40" fill="none" xmlns="http://www.w3.org/2000/svg">
<path d="M47.5228 11.8382C48.1868 11.9734 48.4186 12.7243 48.5925 13.299C48.9003 14.5512 48.9003 15.8593 48.5925 17.1116C48.4186 17.6838 48.1868 18.4347 47.5228 18.5603C47.6952 18.5573 47.8642 18.5116 48.0146 18.4274C48.1651 18.3431 48.2922 18.2229 48.3848 18.0774C49.3337 16.7397 49.3506 14.7139 48.8677 13.1976C48.6383 12.6301 48.2472 11.8212 47.5228 11.8382Z" fill="white"/>
<path d="M29.2252 14.7671C28.7302 13.3473 27.3225 12.1883 25.7772 12.3163C28.9162 12.5747 30.109 16.6022 28.2352 18.8863C27.9397 19.2655 27.5686 19.5792 27.1455 19.8074C26.7224 20.0356 26.2564 20.1733 25.7772 20.2119C26.2806 20.2385 26.7834 20.1491 27.2468 19.9506C27.7102 19.7522 28.1219 19.45 28.4501 19.0674C28.9509 18.4848 29.2868 17.7789 29.4231 17.0228C29.5593 16.2667 29.491 15.4879 29.2252 14.7671Z" fill="white"/>
<path d="M27.04 18.9684C29.3266 18.1281 29.3411 14.4532 27.0714 13.5791C28.8751 14.8636 28.8461 17.7346 27.04 18.9684Z" fill="white"/>
<path d="M26.3977 16.2644C26.3842 16.145 26.3365 16.032 26.2602 15.9391C26.184 15.8463 26.0825 15.7774 25.9681 15.7409C25.8536 15.7044 25.731 15.7017 25.6151 15.7333C25.4991 15.7649 25.3948 15.8293 25.3146 15.9188C25.2345 16.0083 25.1819 16.1191 25.1633 16.2378C25.1447 16.3565 25.1608 16.4781 25.2097 16.5878C25.2585 16.6976 25.3381 16.7909 25.4388 16.8564C25.5395 16.922 25.657 16.957 25.7772 16.9573C25.9512 16.9474 26.1142 16.8689 26.2305 16.739C26.3468 16.6091 26.407 16.4384 26.3977 16.2644Z" fill="white"/>
<path d="M47.827 15.2045C47.827 14.9172 47.7232 14.625 47.5228 14.625C47.3224 14.625 47.2161 14.9172 47.2161 15.2045C47.2161 15.4918 47.3224 15.7864 47.5228 15.7864C47.7232 15.7864 47.827 15.4942 47.827 15.2045Z" fill="white"/>
<path d="M50.4227 8.64634C50.3669 8.18859 50.1849 7.75536 49.8971 7.39506C49.6093 7.03477 49.227 6.76158 48.7929 6.60604C48.0874 6.33177 47.4215 5.96475 46.8129 5.51465C45.8326 4.81201 44.9489 3.98382 43.9758 3.27635C41.2643 1.30607 37.9201 0.330583 34.5783 0.0746394C31.2366 -0.181304 27.8779 0.253317 24.5893 0.885933C27.2048 0.629181 29.8335 0.531613 32.4608 0.593769C35.0637 0.625158 37.6907 0.984929 40.1125 1.94834C42.8603 3.04214 45.2483 4.87238 47.5421 6.74125C44.6138 6.89114 41.7004 7.25592 38.8256 7.83263C42.1737 7.45186 45.5552 7.4697 48.8991 7.88575C50.0847 8.04029 50.4855 9.49627 50.4855 10.6915C50.5176 10.0092 50.4966 9.3254 50.4227 8.64634Z" fill="white"/>
<path d="M34.9284 2.3082C33.8517 2.72854 32.8995 3.41567 32.1613 4.30505C31.5429 5.03925 30.9865 5.82345 30.4977 6.64959C30.4685 6.69631 30.4527 6.75012 30.452 6.80518C30.4512 6.86024 30.4656 6.91446 30.4934 6.96196C30.5213 7.00946 30.5616 7.04844 30.61 7.07467C30.6584 7.1009 30.7131 7.11338 30.7681 7.11077L31.7629 7.06248C31.8015 7.00936 31.8426 6.95865 31.8836 6.90553C32.1967 6.47512 32.5447 6.07131 32.9243 5.69825C33.9275 5.52083 34.9531 5.51104 35.9594 5.66927C36.4206 5.74654 36.5582 6.31879 36.58 6.81378H36.7007C37.2995 6.78802 37.8975 6.75583 38.4947 6.71719C38.5305 5.12667 38.2709 3.54331 37.7293 2.04743C36.7881 1.91402 35.8288 2.00334 34.9284 2.3082Z" fill="white"/>
<path d="M43.4542 6.06998C43.6103 6.0365 43.753 5.95757 43.8644 5.84313C43.9757 5.72869 44.0507 5.58386 44.0799 5.42688C44.1091 5.2699 44.0911 5.1078 44.0283 4.961C43.9655 4.81419 43.8607 4.68926 43.7271 4.60192C43.4856 4.44739 43.2441 4.30493 43.0027 4.16489C41.7664 3.45742 40.5084 2.75478 39.1394 2.34189C38.9897 2.29601 38.84 2.25497 38.6879 2.21875C39.2149 3.63242 39.5155 5.12037 39.5788 6.62774C40.8814 6.52657 42.176 6.34025 43.4542 6.06998Z" fill="white"/>
<path d="M49.7394 13.5023C49.7394 10.0905 48.1168 9.93112 48.0492 9.9287C45.9244 9.60998 44.8112 12.8769 44.338 14.8544C44.2243 15.3381 43.9619 15.7741 43.5877 16.101C43.2136 16.428 42.7464 16.6296 42.2518 16.6774L30.7609 17.7615C30.8277 16.2451 30.7403 14.7258 30.5001 13.227C30.278 11.7783 29.4739 10.0615 27.8851 9.58342C26.7334 9.23573 25.3474 9.6631 24.3551 10.67C23.8641 11.1836 23.4684 11.7805 23.1864 12.4326L20.0644 12.8141L22.9932 12.8986C22.9224 13.0805 22.8548 13.2689 22.7904 13.4636L19.1541 13.8982L22.6262 13.9972V14.0286C22.5844 14.1735 22.5457 14.3208 22.5103 14.4705L18.251 14.9969L22.2592 15.1128L22.2785 15.487L17.3407 16.0931L22.0347 16.2283L22.0467 16.4987L16.4305 17.1869L21.8198 17.3438C21.7787 17.479 21.7377 17.6143 21.6918 17.7446C20.627 17.8074 6.58145 18.3097 3.01514 18.4352C2.714 18.4252 2.41574 18.3732 2.12899 18.2807C1.98586 18.234 1.85367 18.1587 1.74038 18.0596C1.6271 17.9604 1.53506 17.8393 1.46982 17.7036C1.28148 17.2472 1.52535 16.7233 1.71127 16.2863C1.8006 16.0748 1.91317 15.874 2.0469 15.6874C2.12548 15.564 2.22424 15.4546 2.33906 15.3639C2.39929 15.4179 2.47398 15.4531 2.55396 15.4653C6.71184 16.04 10.2806 15.8009 15.8534 15.4653C15.921 15.4619 15.9868 15.442 16.0451 15.4074C16.1033 15.3728 16.1521 15.3244 16.1874 15.2665C16.2226 15.2087 16.2432 15.1431 16.2472 15.0754C16.2513 15.0078 16.2388 14.9402 16.2107 14.8786C15.9783 14.4065 15.6414 13.9936 15.2256 13.6713C13.7768 12.534 11.8452 12.2008 10.0657 12.1429C8.19438 12.0777 5.94401 12.1066 4.22484 12.9059C3.4253 13.2616 2.76453 13.8697 2.34389 14.6371C1.98821 14.5104 1.67927 14.2789 1.45774 13.9731C1.15901 13.3761 1.06079 12.6987 1.17765 12.0414C1.24476 11.7057 1.35769 11.3807 1.51328 11.0756C1.62404 11.1944 1.75379 11.294 1.8972 11.3702C2.12088 11.4713 2.36242 11.527 2.60779 11.5341C2.85317 11.5411 3.0975 11.4994 3.32662 11.4112C3.47352 11.359 3.60559 11.272 3.71155 11.1576C3.81751 11.0433 3.89421 10.9049 3.93509 10.7545C3.96857 10.4635 3.9863 10.1709 3.98821 9.878C4.05639 9.37135 4.26935 8.89513 4.60151 8.50653C4.64256 8.45341 4.69085 8.40511 4.73672 8.35441C5.50598 8.00786 6.31077 7.74634 7.1368 7.5745C7.33238 7.55277 11.1981 7.13988 16.1021 7.13988H27.2791C27.9922 7.10183 28.6721 6.82646 29.2107 6.35757C29.6479 5.88857 30.0551 5.39261 30.4301 4.87261C31.6055 3.39408 33.0994 2.1998 34.8005 1.37873C30.8599 1.18235 26.9161 1.18235 22.9691 1.37873C22.1242 1.42034 21.2847 1.53669 20.4604 1.72643L26.9797 1.91477L19.8857 2.11759C19.2343 2.13434 18.5919 2.27444 17.9927 2.53048L17.8744 2.58119L27.2501 2.85162L17.3335 3.13654C16.9246 3.14801 16.5244 3.25819 16.1673 3.45767L27.5157 3.78605L15.595 4.11685C15.158 4.14341 14.7113 4.22309 14.6292 4.34382L27.7813 4.72291L14.0956 5.11648C13.8034 5.1358 13.4147 5.17201 13.4147 5.23962L28.0493 5.65976L12.3088 6.11369V6.13543L28.3174 6.59661L16.8385 6.9274C16.8385 6.9274 11.5434 6.88394 8.26681 7.22198C8.25108 7.21714 8.23426 7.21714 8.21852 7.22198C8.02536 7.24371 7.83461 7.27268 7.64627 7.30166H7.62213C7.30099 7.34271 7.01124 7.391 6.75771 7.44412C5.88872 7.59104 5.03742 7.82814 4.21759 8.15159C3.22279 8.56206 1.86581 9.34438 1.07866 10.7376C0.354291 12.0125 0.303583 13.5578 0.962758 14.6926C0.777869 15.1375 0.680321 15.6138 0.675428 16.0955C0.631585 16.4414 0.620267 16.7906 0.641625 17.1386C0.639169 17.539 0.768092 17.9292 1.00864 18.2493C1.25715 18.5065 1.5933 18.6607 1.95032 18.6815C2.22293 18.7117 2.49776 18.7165 2.77127 18.696C3.07784 19.2225 3.51476 19.6612 4.03998 19.9699C4.5652 20.2786 5.16104 20.4469 5.77016 20.4586H8.04226C8.60322 20.4515 9.15424 20.3096 9.64885 20.0448C10.1435 19.7801 10.5672 19.4003 10.8842 18.9374C12.9873 18.9712 14.9503 18.9833 16.6598 18.9833C17.6257 18.9833 18.5335 18.9833 19.3159 18.9833C19.6804 19.6478 20.2141 20.204 20.8629 20.5958C21.5116 20.9876 22.2524 21.201 23.0101 21.2144H25.7772C27.3636 21.2144 28.7544 20.2751 29.5343 18.8698L30.5194 18.7829L31.4249 18.7177C31.5211 18.8657 31.6503 18.9894 31.8024 19.0791C31.9545 19.1687 32.1253 19.2219 32.3014 19.2344H34.7642C35.1675 19.2344 35.5417 18.9447 35.8508 18.4014L43.2321 17.8702C43.6136 19.0413 44.1979 19.7125 44.8668 19.7125H47.7377C48.8677 19.7125 49.7538 17.7446 49.7538 15.2311C49.7538 14.9896 49.7538 14.7482 49.7273 14.5067C49.7466 14.1204 49.749 13.7968 49.7394 13.5023ZM10.0415 12.5002C10.4134 12.5002 10.7659 12.5364 11.1112 12.5727L5.97781 12.7224C7.31953 12.4941 8.68291 12.4195 10.0415 12.5002ZM4.36488 13.2246C4.52666 13.1497 4.69809 13.0821 4.87194 13.0193L12.7434 13.2463L3.86748 13.5023C4.02759 13.3999 4.1946 13.3087 4.36729 13.2294L4.36488 13.2246ZM3.5898 13.7075L12.9511 13.9779L3.00789 14.2653C3.18041 14.0552 3.37646 13.8656 3.59222 13.7003L3.5898 13.7075ZM2.90407 14.4005L13.1563 14.6975L2.55637 14.9945C2.64886 14.7809 2.76638 14.5791 2.90648 14.3932L2.90407 14.4005ZM11.4082 15.3663C8.14609 15.5184 5.47316 15.5208 2.53706 15.1104L11.4082 15.3663ZM25.7748 21.0236C25.6855 21.0236 25.5961 21.0236 25.5068 21.0236H25.4175C25.3595 21.0236 25.2991 21.0236 25.2412 21.0043L25.135 20.9874C25.0842 20.9874 25.0311 20.9705 24.9804 20.9584L24.8669 20.9319L24.7245 20.8957L24.611 20.8594L24.4734 20.8136L24.3599 20.7701L24.2271 20.717L24.1136 20.6639L23.988 20.6011L23.877 20.5407L23.7562 20.4707L23.65 20.4031C23.6114 20.3765 23.5703 20.3524 23.5317 20.3234L23.4279 20.2486C23.3916 20.2196 23.353 20.193 23.3168 20.1616C23.2806 20.1302 23.2492 20.1085 23.2178 20.0795L23.1091 19.9854L23.015 19.896C22.9787 19.8622 22.9449 19.8284 22.9111 19.7922L22.8218 19.698C22.788 19.6618 22.7542 19.6256 22.7228 19.587L22.6383 19.4855L22.5465 19.3672L22.4669 19.2586L22.3799 19.133L22.3075 19.0195C22.293 18.9978 22.2809 18.9761 22.2689 18.9543L23.0729 18.9399H23.1598V18.8529C23.1598 18.8529 23.1598 18.8288 23.1598 18.795C23.1598 18.7805 23.1598 18.7612 23.1598 18.7419V18.6791C23.1961 17.7978 23.4327 13.8644 24.8356 11.6768L24.9418 11.6527L25.0504 11.6286L25.1905 11.6068L25.2895 11.5899L25.4464 11.5754H25.5285C25.6074 11.5754 25.6879 11.5754 25.77 11.5754C28.1073 11.5754 30.0075 13.7027 30.0075 16.3176C30.0075 18.9326 28.1145 21.0091 25.7772 21.0091L25.7748 21.0236ZM47.6435 10.5927C47.8264 10.498 48.0356 10.4665 48.2383 10.5032C48.441 10.5399 48.6258 10.6427 48.7639 10.7955C49.0947 11.1625 49.4593 11.8676 49.5462 13.2101C49.2202 11.73 48.5393 10.7328 47.7353 10.7328H47.4093C47.484 10.6751 47.5631 10.6234 47.6459 10.5782L47.6435 10.5927ZM47.7353 19.5266C46.7212 19.5266 45.8978 17.5949 45.8978 15.2238C45.8978 15.1224 45.8978 15.021 45.8978 14.922C45.8978 14.9003 45.8978 14.8786 45.8978 14.8568C45.8978 14.6443 45.9195 14.4343 45.9412 14.229C45.996 13.707 46.1028 13.1918 46.26 12.691C46.3203 12.5244 46.3807 12.3553 46.4459 12.1887L46.4894 12.0801C46.7912 11.4137 47.1727 11.008 47.5735 10.9187C47.6298 10.9063 47.6873 10.8998 47.7449 10.8994C48.7566 10.8994 49.5824 12.831 49.5824 15.2021C49.5824 17.5732 48.7494 19.5073 47.7377 19.5073L47.7353 19.5266Z" fill="white"/>
<path d="M15.595 10.7955C15.5387 10.8406 15.4957 10.9002 15.4708 10.9679C15.4459 11.0356 15.44 11.1088 15.4536 11.1797C15.4673 11.2505 15.5001 11.3163 15.5484 11.3698C15.5967 11.4234 15.6587 11.4628 15.7278 11.4837C16.7347 11.7686 17.8671 11.7589 18.8957 11.7034C19.6007 11.6647 20.3251 11.614 20.9674 11.3195C21.8463 10.9138 22.3702 9.94799 23.1405 9.35159C23.3198 9.23496 23.4654 9.07348 23.563 8.88317C23.5855 8.82405 23.5937 8.76049 23.5871 8.6976C23.5805 8.63472 23.5591 8.57427 23.5248 8.52116C23.4905 8.46804 23.4442 8.42374 23.3896 8.39184C23.335 8.35993 23.2736 8.34131 23.2105 8.33748C20.453 8.16836 17.7333 9.04619 15.595 10.7955Z" fill="white"/>
<path d="M43.7029 14.7262C43.8413 13.6138 44.2068 12.5418 44.7767 11.5765C45.3465 10.6112 46.1086 9.77331 47.0157 9.11475C45.8084 9.54695 43.3818 11.6549 43.179 14.2119C39.5822 14.8769 35.942 15.2804 32.2869 15.4192C36.1043 15.8226 39.9623 15.5884 43.7029 14.7262Z" fill="white"/>
<path d="M5.516 37.3584C4.868 37.3584 4.264 37.2544 3.704 37.0464C3.152 36.8304 2.672 36.5264 2.264 36.1344C1.856 35.7424 1.536 35.2824 1.304 34.7544C1.08 34.2264 0.968 33.6464 0.968 33.0144C0.968 32.3824 1.08 31.8024 1.304 31.2744C1.536 30.7464 1.856 30.2864 2.264 29.8944C2.68 29.5024 3.164 29.2024 3.716 28.9944C4.268 28.7784 4.872 28.6704 5.528 28.6704C6.256 28.6704 6.912 28.7984 7.496 29.0544C8.088 29.3024 8.584 29.6704 8.984 30.1584L7.736 31.3104C7.448 30.9824 7.128 30.7384 6.776 30.5784C6.424 30.4104 6.04 30.3264 5.624 30.3264C5.232 30.3264 4.872 30.3904 4.544 30.5184C4.216 30.6464 3.932 30.8304 3.692 31.0704C3.452 31.3104 3.264 31.5944 3.128 31.9224C3 32.2504 2.936 32.6144 2.936 33.0144C2.936 33.4144 3 33.7784 3.128 34.1064C3.264 34.4344 3.452 34.7184 3.692 34.9584C3.932 35.1984 4.216 35.3824 4.544 35.5104C4.872 35.6384 5.232 35.7024 5.624 35.7024C6.04 35.7024 6.424 35.6224 6.776 35.4624C7.128 35.2944 7.448 35.0424 7.736 34.7064L8.984 35.8584C8.584 36.3464 8.088 36.7184 7.496 36.9744C6.912 37.2304 6.252 37.3584 5.516 37.3584ZM14.201 37.3584C13.537 37.3584 12.921 37.2504 12.353 37.0344C11.793 36.8184 11.305 36.5144 10.889 36.1224C10.481 35.7304 10.161 35.2704 9.929 34.7424C9.705 34.2144 9.593 33.6384 9.593 33.0144C9.593 32.3904 9.705 31.8144 9.929 31.2864C10.161 30.7584 10.485 30.2984 10.901 29.9064C11.317 29.5144 11.805 29.2104 12.365 28.9944C12.925 28.7784 13.533 28.6704 14.189 28.6704C14.853 28.6704 15.461 28.7784 16.013 28.9944C16.573 29.2104 17.057 29.5144 17.465 29.9064C17.881 30.2984 18.205 30.7584 18.437 31.2864C18.669 31.8064 18.785 32.3824 18.785 33.0144C18.785 33.6384 18.669 34.2184 18.437 34.7544C18.205 35.2824 17.881 35.7424 17.465 36.1344C17.057 36.5184 16.573 36.8184 16.013 37.0344C15.461 37.2504 14.857 37.3584 14.201 37.3584ZM14.189 35.7024C14.565 35.7024 14.909 35.6384 15.221 35.5104C15.541 35.3824 15.821 35.1984 16.061 34.9584C16.301 34.7184 16.485 34.4344 16.613 34.1064C16.749 33.7784 16.817 33.4144 16.817 33.0144C16.817 32.6144 16.749 32.2504 16.613 31.9224C16.485 31.5944 16.301 31.3104 16.061 31.0704C15.829 30.8304 15.553 30.6464 15.233 30.5184C14.913 30.3904 14.565 30.3264 14.189 30.3264C13.813 30.3264 13.465 30.3904 13.145 30.5184C12.833 30.6464 12.557 30.8304 12.317 31.0704C12.077 31.3104 11.889 31.5944 11.753 31.9224C11.625 32.2504 11.561 32.6144 11.561 33.0144C11.561 33.4064 11.625 33.7704 11.753 34.1064C11.889 34.4344 12.073 34.7184 12.305 34.9584C12.545 35.1984 12.825 35.3824 13.145 35.5104C13.465 35.6384 13.813 35.7024 14.189 35.7024ZM20.246 37.2144V28.8144H22.19V35.6304H26.402V37.2144H20.246ZM31.4276 37.3584C30.7636 37.3584 30.1476 37.2504 29.5796 37.0344C29.0196 36.8184 28.5316 36.5144 28.1156 36.1224C27.7076 35.7304 27.3876 35.2704 27.1556 34.7424C26.9316 34.2144 26.8196 33.6384 26.8196 33.0144C26.8196 32.3904 26.9316 31.8144 27.1556 31.2864C27.3876 30.7584 27.7116 30.2984 28.1276 29.9064C28.5436 29.5144 29.0316 29.2104 29.5916 28.9944C30.1516 28.7784 30.7596 28.6704 31.4156 28.6704C32.0796 28.6704 32.6876 28.7784 33.2396 28.9944C33.7996 29.2104 34.2836 29.5144 34.6916 29.9064C35.1076 30.2984 35.4316 30.7584 35.6636 31.2864C35.8956 31.8064 36.0116 32.3824 36.0116 33.0144C36.0116 33.6384 35.8956 34.2184 35.6636 34.7544C35.4316 35.2824 35.1076 35.7424 34.6916 36.1344C34.2836 36.5184 33.7996 36.8184 33.2396 37.0344C32.6876 37.2504 32.0836 37.3584 31.4276 37.3584ZM31.4156 35.7024C31.7916 35.7024 32.1356 35.6384 32.4476 35.5104C32.7676 35.3824 33.0476 35.1984 33.2876 34.9584C33.5276 34.7184 33.7116 34.4344 33.8396 34.1064C33.9756 33.7784 34.0436 33.4144 34.0436 33.0144C34.0436 32.6144 33.9756 32.2504 33.8396 31.9224C33.7116 31.5944 33.5276 31.3104 33.2876 31.0704C33.0556 30.8304 32.7796 30.6464 32.4596 30.5184C32.1396 30.3904 31.7916 30.3264 31.4156 30.3264C31.0396 30.3264 30.6916 30.3904 30.3716 30.5184C30.0596 30.6464 29.7836 30.8304 29.5436 31.0704C29.3036 31.3104 29.1156 31.5944 28.9796 31.9224C28.8516 32.2504 28.7876 32.6144 28.7876 33.0144C28.7876 33.4064 28.8516 33.7704 28.9796 34.1064C29.1156 34.4344 29.2996 34.7184 29.5316 34.9584C29.7716 35.1984 30.0516 35.3824 30.3716 35.5104C30.6916 35.6384 31.0396 35.7024 31.4156 35.7024ZM41.4926 37.3584C40.8446 37.3584 40.2406 37.2544 39.6806 37.0464C39.1286 36.8304 38.6486 36.5264 38.2406 36.1344C37.8326 35.7424 37.5126 35.2824 37.2806 34.7544C37.0566 34.2264 36.9446 33.6464 36.9446 33.0144C36.9446 32.3824 37.0566 31.8024 37.2806 31.2744C37.5126 30.7464 37.8326 30.2864 38.2406 29.8944C38.6566 29.5024 39.1406 29.2024 39.6926 28.9944C40.2446 28.7784 40.8486 28.6704 41.5046 28.6704C42.2326 28.6704 42.8886 28.7984 43.4726 29.0544C44.0646 29.3024 44.5606 29.6704 44.9606 30.1584L43.7126 31.3104C43.4246 30.9824 43.1046 30.7384 42.7526 30.5784C42.4006 30.4104 42.0166 30.3264 41.6006 30.3264C41.2086 30.3264 40.8486 30.3904 40.5206 30.5184C40.1926 30.6464 39.9086 30.8304 39.6686 31.0704C39.4286 31.3104 39.2406 31.5944 39.1046 31.9224C38.9766 32.2504 38.9126 32.6144 38.9126 33.0144C38.9126 33.4144 38.9766 33.7784 39.1046 34.1064C39.2406 34.4344 39.4286 34.7184 39.6686 34.9584C39.9086 35.1984 40.1926 35.3824 40.5206 35.5104C40.8486 35.6384 41.2086 35.7024 41.6006 35.7024C42.0166 35.7024 42.4006 35.6224 42.7526 35.4624C43.1046 35.2944 43.4246 35.0424 43.7126 34.7064L44.9606 35.8584C44.5606 36.3464 44.0646 36.7184 43.4726 36.9744C42.8886 37.2304 42.2286 37.3584 41.4926 37.3584ZM52.4318 37.3584C51.7598 37.3584 51.1158 37.2704 50.4998 37.0944C49.8838 36.9104 49.3878 36.6744 49.0118 36.3864L49.6718 34.9224C50.0318 35.1784 50.4558 35.3904 50.9438 35.5584C51.4398 35.7184 51.9398 35.7984 52.4438 35.7984C52.8278 35.7984 53.1358 35.7624 53.3678 35.6904C53.6078 35.6104 53.7838 35.5024 53.8958 35.3664C54.0078 35.2304 54.0638 35.0744 54.0638 34.8984C54.0638 34.6744 53.9758 34.4984 53.7998 34.3704C53.6238 34.2344 53.3918 34.1264 53.1038 34.0464C52.8158 33.9584 52.4958 33.8784 52.1438 33.8064C51.7998 33.7264 51.4518 33.6304 51.0998 33.5184C50.7558 33.4064 50.4398 33.2624 50.1518 33.0864C49.8638 32.9104 49.6278 32.6784 49.4438 32.3904C49.2678 32.1024 49.1798 31.7344 49.1798 31.2864C49.1798 30.8064 49.3078 30.3704 49.5638 29.9784C49.8278 29.5784 50.2198 29.2624 50.7398 29.0304C51.2678 28.7904 51.9278 28.6704 52.7198 28.6704C53.2478 28.6704 53.7678 28.7344 54.2798 28.8624C54.7918 28.9824 55.2438 29.1664 55.6358 29.4144L55.0358 30.8904C54.6438 30.6664 54.2518 30.5024 53.8598 30.3984C53.4678 30.2864 53.0838 30.2304 52.7078 30.2304C52.3318 30.2304 52.0238 30.2744 51.7838 30.3624C51.5438 30.4504 51.3718 30.5664 51.2678 30.7104C51.1638 30.8464 51.1118 31.0064 51.1118 31.1904C51.1118 31.4064 51.1998 31.5824 51.3758 31.7184C51.5518 31.8464 51.7838 31.9504 52.0718 32.0304C52.3598 32.1104 52.6758 32.1904 53.0198 32.2704C53.3718 32.3504 53.7198 32.4424 54.0638 32.5464C54.4158 32.6504 54.7358 32.7904 55.0238 32.9664C55.3118 33.1424 55.5438 33.3744 55.7198 33.6624C55.9038 33.9504 55.9958 34.3144 55.9958 34.7544C55.9958 35.2264 55.8638 35.6584 55.5998 36.0504C55.3358 36.4424 54.9398 36.7584 54.4118 36.9984C53.8918 37.2384 53.2318 37.3584 52.4318 37.3584ZM59.1121 32.1984H63.1561V33.7104H59.1121V32.1984ZM59.2561 35.6544H63.8281V37.2144H57.3241V28.8144H63.6721V30.3744H59.2561V35.6544ZM65.3749 37.2144V28.8144H69.0109C69.7629 28.8144 70.4109 28.9384 70.9549 29.1864C71.4989 29.4264 71.9189 29.7744 72.2149 30.2304C72.5109 30.6864 72.6589 31.2304 72.6589 31.8624C72.6589 32.4864 72.5109 33.0264 72.2149 33.4824C71.9189 33.9304 71.4989 34.2744 70.9549 34.5144C70.4109 34.7544 69.7629 34.8744 69.0109 34.8744H66.4549L67.3189 34.0224V37.2144H65.3749ZM70.7149 37.2144L68.6149 34.1664H70.6909L72.8149 37.2144H70.7149ZM67.3189 34.2384L66.4549 33.3264H68.9029C69.5029 33.3264 69.9509 33.1984 70.2469 32.9424C70.5429 32.6784 70.6909 32.3184 70.6909 31.8624C70.6909 31.3984 70.5429 31.0384 70.2469 30.7824C69.9509 30.5264 69.5029 30.3984 68.9029 30.3984H66.4549L67.3189 29.4744V34.2384ZM76.7191 37.2144L73.0951 28.8144H75.1951L78.3631 36.2544H77.1271L80.3431 28.8144H82.2751L78.6391 37.2144H76.7191ZM82.9765 37.2144V28.8144H84.9205V37.2144H82.9765ZM90.934 37.3584C90.286 37.3584 89.682 37.2544 89.122 37.0464C88.57 36.8304 88.09 36.5264 87.682 36.1344C87.274 35.7424 86.954 35.2824 86.722 34.7544C86.498 34.2264 86.386 33.6464 86.386 33.0144C86.386 32.3824 86.498 31.8024 86.722 31.2744C86.954 30.7464 87.274 30.2864 87.682 29.8944C88.098 29.5024 88.582 29.2024 89.134 28.9944C89.686 28.7784 90.29 28.6704 90.946 28.6704C91.674 28.6704 92.33 28.7984 92.914 29.0544C93.506 29.3024 94.002 29.6704 94.402 30.1584L93.154 31.3104C92.866 30.9824 92.546 30.7384 92.194 30.5784C91.842 30.4104 91.458 30.3264 91.042 30.3264C90.65 30.3264 90.29 30.3904 89.962 30.5184C89.634 30.6464 89.35 30.8304 89.11 31.0704C88.87 31.3104 88.682 31.5944 88.546 31.9224C88.418 32.2504 88.354 32.6144 88.354 33.0144C88.354 33.4144 88.418 33.7784 88.546 34.1064C88.682 34.4344 88.87 34.7184 89.11 34.9584C89.35 35.1984 89.634 35.3824 89.962 35.5104C90.29 35.6384 90.65 35.7024 91.042 35.7024C91.458 35.7024 91.842 35.6224 92.194 35.4624C92.546 35.2944 92.866 35.0424 93.154 34.7064L94.402 35.8584C94.002 36.3464 93.506 36.7184 92.914 36.9744C92.33 37.2304 91.67 37.3584 90.934 37.3584ZM97.5028 32.1984H101.547V33.7104H97.5028V32.1984ZM97.6468 35.6544H102.219V37.2144H95.7148V28.8144H102.063V30.3744H97.6468V35.6544ZM106.526 37.3584C105.854 37.3584 105.21 37.2704 104.594 37.0944C103.978 36.9104 103.482 36.6744 103.106 36.3864L103.766 34.9224C104.126 35.1784 104.55 35.3904 105.038 35.5584C105.534 35.7184 106.034 35.7984 106.538 35.7984C106.922 35.7984 107.23 35.7624 107.462 35.6904C107.702 35.6104 107.878 35.5024 107.99 35.3664C108.102 35.2304 108.158 35.0744 108.158 34.8984C108.158 34.6744 108.07 34.4984 107.894 34.3704C107.718 34.2344 107.486 34.1264 107.198 34.0464C106.91 33.9584 106.59 33.8784 106.238 33.8064C105.894 33.7264 105.546 33.6304 105.194 33.5184C104.85 33.4064 104.534 33.2624 104.246 33.0864C103.958 32.9104 103.722 32.6784 103.538 32.3904C103.362 32.1024 103.274 31.7344 103.274 31.2864C103.274 30.8064 103.402 30.3704 103.658 29.9784C103.922 29.5784 104.314 29.2624 104.834 29.0304C105.362 28.7904 106.022 28.6704 106.814 28.6704C107.342 28.6704 107.862 28.7344 108.374 28.8624C108.886 28.9824 109.338 29.1664 109.73 29.4144L109.13 30.8904C108.738 30.6664 108.346 30.5024 107.954 30.3984C107.562 30.2864 107.178 30.2304 106.802 30.2304C106.426 30.2304 106.118 30.2744 105.878 30.3624C105.638 30.4504 105.466 30.5664 105.362 30.7104C105.258 30.8464 105.206 31.0064 105.206 31.1904C105.206 31.4064 105.294 31.5824 105.47 31.7184C105.646 31.8464 105.878 31.9504 106.166 32.0304C106.454 32.1104 106.77 32.1904 107.114 32.2704C107.466 32.3504 107.814 32.4424 108.158 32.5464C108.51 32.6504 108.83 32.7904 109.118 32.9664C109.406 33.1424 109.638 33.3744 109.814 33.6624C109.998 33.9504 110.09 34.3144 110.09 34.7544C110.09 35.2264 109.958 35.6584 109.694 36.0504C109.43 36.4424 109.034 36.7584 108.506 36.9984C107.986 37.2384 107.326 37.3584 106.526 37.3584Z" fill="white"/>
</svg>
