<svg width="149" height="39" viewBox="0 0 149 39" fill="none" xmlns="http://www.w3.org/2000/svg">
<path d="M24.1626 9.27755H26.5222V25.7684H33.6012V28.1378H24.1626V9.27755ZM40.9515 9.27755C42.3516 9.27755 43.7202 9.69444 44.8843 10.4755C46.0485 11.2566 46.9559 12.3666 47.4916 13.6655C48.0274 14.9644 48.1675 16.3936 47.8944 17.7724C47.6213 19.1512 46.9471 20.4178 45.957 21.4119C44.967 22.406 43.7057 23.083 42.3325 23.3572C40.9594 23.6315 39.5361 23.4907 38.2425 22.9528C36.9489 22.4147 35.8434 21.5037 35.0656 20.3347C34.2877 19.1658 33.8726 17.7916 33.8726 16.3857C33.8726 15.4523 34.0557 14.5279 34.4114 13.6655C34.7671 12.8031 35.2886 12.0195 35.946 11.3595C36.6033 10.6994 37.3836 10.1758 38.2425 9.81859C39.1013 9.46141 40.0219 9.27755 40.9515 9.27755ZM40.9515 21.1244C41.8849 21.1244 42.7973 20.8465 43.5734 20.3258C44.3495 19.8051 44.9544 19.065 45.3115 18.1991C45.6688 17.3332 45.7622 16.3805 45.5801 15.4612C45.398 14.542 44.9485 13.6976 44.2885 13.0349C43.6285 12.3722 42.7877 11.9208 41.8722 11.738C40.9567 11.5551 40.0079 11.6489 39.1455 12.0077C38.2832 12.3663 37.5461 12.9737 37.0275 13.7529C36.509 14.5322 36.2322 15.4485 36.2322 16.3857C36.2385 17.6384 36.7383 18.8376 37.6227 19.7212C38.5071 20.6047 39.704 21.1008 40.9515 21.1008V21.1244ZM36.2322 25.7921H45.6708V28.1615H36.2322V25.7921ZM66.4357 28.1615H64.0761V26.4674C62.5543 27.5369 60.7423 28.1118 58.8848 28.1141C57.3009 28.1248 55.7398 27.735 54.3453 26.9807C52.9508 26.2263 51.7678 25.1318 50.9053 23.7978C50.0428 22.4639 49.5284 20.9334 49.4097 19.3473C49.2909 17.7613 49.5715 16.1708 50.2257 14.7224C50.88 13.2739 51.8867 12.0139 53.1531 11.0588C54.4197 10.1036 55.9052 9.4838 57.4728 9.25658C59.0406 9.02923 60.6401 9.20184 62.1238 9.75829C63.6077 10.3147 64.9282 11.2371 65.9638 12.4407L64.2294 13.9926C63.4418 13.1084 62.4464 12.4362 61.3337 12.0373C60.2211 11.6383 59.0268 11.5253 57.8596 11.7085C56.6922 11.8918 55.5893 12.3656 54.651 13.0864C53.7128 13.8074 52.9692 14.7526 52.4881 15.8361C52.0068 16.9195 51.8033 18.1066 51.896 19.2892C51.9888 20.4719 52.3747 21.6124 53.0189 22.6069C53.663 23.6013 54.5447 24.4181 55.5838 24.9827C56.6227 25.5474 57.7861 25.8419 58.9674 25.8395C59.9478 25.8415 60.9172 25.6309 61.8091 25.2219C62.701 24.813 63.4944 24.2154 64.135 23.4701H57.764V21.1008H66.4593L66.4357 28.1615ZM75.1192 9.32493C76.5193 9.32493 77.8879 9.74183 79.052 10.5229C80.2162 11.304 81.1236 12.414 81.6593 13.7129C82.1951 15.0118 82.3353 16.441 82.0621 17.8198C81.789 19.1986 81.1148 20.4652 80.1247 21.4592C79.1347 22.4534 77.8734 23.1304 76.5002 23.4046C75.1271 23.6789 73.7038 23.5381 72.4102 23.0002C71.1167 22.4621 70.0112 21.5511 69.2333 20.3821C68.4554 19.2132 68.0403 17.8389 68.0403 16.4331C68.034 15.4936 68.2133 14.5623 68.5678 13.6929C68.9222 12.8234 69.4447 12.0331 70.1052 11.3678C70.7657 10.7024 71.551 10.1751 72.4156 9.81622C73.2803 9.4575 74.2072 9.27435 75.1428 9.27755L75.1192 9.32493ZM75.1192 21.1718C76.0526 21.1718 76.965 20.8939 77.7411 20.3732C78.5172 19.8524 79.1221 19.1124 79.4793 18.2465C79.8365 17.3806 79.9299 16.4279 79.7478 15.5085C79.5657 14.5893 79.1162 13.745 78.4562 13.0823C77.7962 12.4196 76.9554 11.9682 76.0399 11.7854C75.1244 11.6025 74.1756 11.6963 73.3133 12.0551C72.4509 12.4137 71.7138 13.021 71.1952 13.8003C70.6767 14.5796 70.3999 15.4959 70.3999 16.4331C70.4186 17.6816 70.9272 18.8724 71.8153 19.7464C72.7034 20.6204 73.8993 21.1072 75.1428 21.1008L75.1192 21.1718ZM70.3999 25.8395H79.8385V28.2089H70.3999V25.8395ZM84.7112 9.27755H87.0708V28.1141H84.7112V9.27755ZM90.3389 9.27755H92.6986C92.8201 9.26463 92.9427 9.26463 93.0643 9.27755C94.0526 9.16986 95.0523 9.27245 95.9984 9.57846C96.9445 9.88458 97.816 10.3872 98.5557 11.0539C99.2956 11.7205 99.8873 12.5362 100.292 13.4477C100.697 14.3592 100.907 15.3461 100.907 16.3442C100.907 17.3423 100.697 18.3293 100.292 19.2408C99.8873 20.1523 99.2956 20.968 98.5557 21.6346C97.816 22.3012 96.9445 22.8039 95.9984 23.11C95.0523 23.416 94.0526 23.5186 93.0643 23.4109H92.6986V28.1497H90.3389V9.27755ZM92.6986 11.6469V21.0178H93.0643C93.7308 21.1069 94.4085 21.0521 95.0522 20.8567C95.6958 20.6615 96.2905 20.3303 96.7962 19.8856C97.3021 19.4409 97.7074 18.8927 97.9851 18.2779C98.2629 17.663 98.4066 16.9957 98.4066 16.3205C98.4066 15.6454 98.2629 14.978 97.9851 14.3632C97.7074 13.7483 97.3021 13.2002 96.7962 12.7554C96.2905 12.3106 95.6958 11.9796 95.0522 11.7842C94.4085 11.589 93.7308 11.5341 93.0643 11.6232C92.9359 11.6366 92.8091 11.6645 92.6868 11.7062L92.6986 11.6469ZM109.7 10.6399L107.954 12.026C107.653 11.71 107.268 11.4868 106.844 11.3827C106.421 11.2787 105.977 11.2982 105.565 11.4388C105.152 11.5793 104.788 11.8352 104.515 12.1764C104.242 12.5176 104.072 12.9298 104.025 13.3647V13.5543C104.025 14.5968 104.745 15.2958 106.149 15.3905C111.552 15.7223 114.03 18.2693 114.03 21.6339V21.8471C113.89 23.1787 113.373 24.4421 112.539 25.487C111.705 26.5318 110.59 27.3141 109.326 27.7409C108.062 28.1677 106.703 28.221 105.409 27.8944C104.116 27.5679 102.943 26.8752 102.031 25.8988L103.836 24.5008C104.256 24.953 104.769 25.3079 105.34 25.5412C105.91 25.7744 106.524 25.8803 107.14 25.8514C108.276 25.9115 109.392 25.5285 110.253 24.7823C111.115 24.0362 111.657 22.9845 111.765 21.8471V21.6813C111.765 18.5181 108.673 17.9376 105.995 17.677C103.518 17.4401 101.736 15.8881 101.736 13.6491V13.5543C101.823 12.3885 102.353 11.301 103.216 10.5163C104.079 9.7314 105.209 9.30918 106.373 9.33678C106.99 9.31853 107.603 9.43025 108.174 9.66494C108.745 9.89963 109.261 10.252 109.688 10.6992L109.7 10.6399ZM123.268 25.7092C126.206 25.7092 128.53 22.5224 128.53 18.6011V9.12354H130.89V18.6011C130.89 23.8137 127.492 28.0193 123.315 28.0193C119.138 28.0193 115.741 23.8137 115.741 18.6011V9.12354H118.1V18.6011C118.006 22.5816 120.33 25.7684 123.256 25.7684L123.268 25.7092ZM149 28.0786H146.64V16.3501L141.201 23.4583L135.762 16.3501V28.1141H133.403V9.27755L141.189 19.5725L148.976 9.27755L149 28.0786Z" fill="black"/>
<path d="M12.8365 6.44472C12.8365 4.73547 12.1603 3.09622 10.9567 1.88761C9.75302 0.678993 8.12047 0 6.41824 0C4.71602 0 3.08352 0.678993 1.87986 1.88761C0.676204 3.09622 0 4.73547 0 6.44472V25.9329L5.28561 29.7357V39H7.55088V29.7357L12.8365 25.9329V6.44472ZM10.5712 17.3439L7.55088 20.3767V17.5334L10.5712 14.5006V17.3439ZM2.31246 14.5006L5.33281 17.5334V20.3767L2.31246 17.3439V14.5006ZM10.5712 11.2783L6.41824 15.4484L2.26526 11.1835V8.34022L6.41824 12.5103L10.5712 8.34022V11.2783ZM6.41824 2.27461C7.3316 2.27866 8.21846 2.58325 8.94295 3.14172C9.66748 3.70018 10.1897 4.48172 10.4296 5.36665L6.41824 9.38275L2.40684 5.36665C2.63802 4.47292 3.15647 3.68077 3.88178 3.11314C4.60708 2.5455 5.49868 2.23408 6.41824 2.22721V2.27461ZM2.26526 24.7837V20.5188L5.28561 23.5516V26.9399L2.26526 24.7837ZM7.55088 26.9517V23.5516L10.5712 20.5188V24.7719L7.55088 26.9517Z" fill="black"/>
</svg>
