<svg width="32" height="28" viewBox="0 0 32 28" fill="none" xmlns="http://www.w3.org/2000/svg">
<path d="M17 4.00007C12.0875 4.00007 7.93125 7.21882 6.51875 11.6563C8.61875 10.5938 10.9875 10.0001 13.5 10.0001H19C19.55 10.0001 20 10.4501 20 11.0001C20 11.5501 19.55 12.0001 19 12.0001H13.5C12.4625 12.0001 11.4563 12.1188 10.4875 12.3376C8.86875 12.7063 7.3625 13.3626 6.025 14.2563C2.39375 16.6751 0 20.8063 0 25.5001V26.5001C0 27.3313 0.66875 28.0001 1.5 28.0001C2.33125 28.0001 3 27.3313 3 26.5001V25.5001C3 22.4563 4.29375 19.7188 6.3625 17.8001C7.6 22.5188 11.8938 26.0001 17 26.0001H17.0625C25.3188 25.9563 32 17.8188 32 7.78757C32 5.12507 31.5312 2.59382 30.6812 0.312566C30.5187 -0.118684 29.8875 -0.0999336 29.6688 0.306316C28.4938 2.50632 26.1688 4.00007 23.5 4.00007H17Z" fill="#DAC488"/>
</svg>
